<?xml version="1.0" encoding="UTF-8" standalone="no"?>
<!-- Created with Inkscape (http://www.inkscape.org/) -->

<svg
   version="1.1"
   id="svg1"
   width="549.33331"
   height="542.7923"
   viewBox="0 0 549.33332 542.7923"
   xmlns="http://www.w3.org/2000/svg"
   xmlns:svg="http://www.w3.org/2000/svg">
  <defs
     id="defs1" />
  <g
     id="g1"
     transform="translate(-66.666671,-83.874328)">
    <path
       style="fill:#000000"
       d="M 528.74229,623.70334 526.66668,620.74 v -1.76393 -1.76393 l 3.27273,-3.27273 3.27273,-3.27273 h 6.77009 6.7701 l 4.29051,-1.83578 4.29051,-1.83579 3.81903,-4.06287 3.81902,-4.06286 0.65685,-5.82758 0.65686,-5.82757 -15.47588,-30.92933 -15.47588,-30.92933 v -2.63087 -2.63086 l 2.57901,-1.38025 2.57901,-1.38024 3.75432,0.0472 3.75433,0.0472 3.12599,1.73376 3.12599,1.73376 10.20734,17.88566 10.20734,17.88566 3.44746,0.40075 3.44747,0.40074 1.47622,-1.77873 1.47622,-1.77874 6.81848,-15.28868 6.81849,-15.28867 3.33219,-3 3.33218,-3 h 4.49707 4.49708 l 2.09524,2.09524 2.09524,2.09524 v 1.38303 1.38303 l -17.49959,39.52173 -17.49959,39.52173 -3.87029,5.62669 -3.8703,5.62669 -4.3347,3.30624 -4.3347,3.30624 -5.96209,2.70445 -5.96208,2.70446 -10.92439,0.0293 -10.9244,0.0293 z m 31.038,-3.80401 8.20621,-4.10069 4.67849,-5.70948 4.67849,-5.70948 17.96512,-40.42247 17.96513,-40.42246 -1.46678,-1.76737 -1.46678,-1.76736 h -3.02237 -3.02236 l -2.73402,2.33333 -2.73402,2.33333 -6.33764,14 -6.33764,14 -2.50018,3.66667 -2.50017,3.66667 h -4.48509 -4.48508 l -2.58562,-3.66667 -2.58562,-3.66667 -8.25576,-14.58104 -8.25576,-14.58104 -2.24941,-1.70989 -2.24941,-1.70989 -4.37518,-0.0424 -4.37518,-0.0424 -0.84459,2.20097 -0.8446,2.20097 15.55311,31.13973 15.5531,31.13973 v 4.72551 4.72551 l -1.88096,3.60046 -1.88097,3.60045 -3.7857,3.58184 -3.7857,3.58185 -3.75347,1.41815 -3.75346,1.41816 h -7.03989 -7.03988 l -2.31292,2.55575 -2.31293,2.55575 1.48652,2.77759 1.48652,2.77758 h 9.74012 9.74013 z m -350.09422,2.04523 -6.9806,-1.87996 -6.94747,-3.52055 -6.94747,-3.52055 -7.77881,-7.41973 -7.77881,-7.41972 -3.79886,-6.75868 -3.79885,-6.75869 -2.37785,-7.33047 -2.37785,-7.33047 0.0708,-11.33619 0.0708,-11.3362 2.86229,-8.43828 2.8623,-8.43828 3.43707,-5.56172 3.43707,-5.56172 5.5134,-5.73416 5.51341,-5.73415 6.05692,-3.89413 6.05693,-3.89414 5.94308,-2.14399 5.94307,-2.144 8,-1.17459 8,-1.1746 9.33334,1.28641 9.33333,1.28642 9.81067,4.80447 9.81068,4.80447 7.52266,7.55724 7.52266,7.55724 3.62279,6.7319 3.62278,6.73191 2.04388,7.84698 2.04388,7.84698 v 9.47787 9.47787 l -2.1487,7.242 -2.14869,7.242 -3.35701,6.62916 -3.357,6.62915 -8.16096,8.04966 -8.16097,8.04966 -6.76649,3.61064 -6.76648,3.61064 -7.84698,2.04388 -7.84698,2.04388 -8.0532,-0.0877 -8.05321,-0.0878 z m 29.59187,-2.6528 7.83819,-2.04159 7.73954,-4.12513 7.73955,-4.12514 6.57481,-6.9519 6.57482,-6.9519 3.94384,-7.88137 3.94384,-7.88138 1.69481,-7.18654 1.69481,-7.18654 -0.71558,-10.14679 -0.71559,-10.1468 -2.92831,-7.76563 -2.92832,-7.76564 -6.2005,-8.14039 -6.20051,-8.14038 -7.33333,-5.02391 -7.33334,-5.02391 -9.19585,-2.96691 -9.19585,-2.96691 -10.13748,0.14623 -10.13748,0.14624 -7.80146,2.72516 -7.80146,2.72517 -4.86521,2.99192 -4.86521,2.99191 -5.59316,5.13559 -5.59317,5.13559 -4.03512,6.28819 -4.03513,6.28819 -2.09983,5.94308 -2.09984,5.94308 -1.11044,8 -1.11043,8 1.17772,8.66667 1.17773,8.66666 4.65578,9.50906 4.65577,9.50906 8.50931,7.96004 8.50931,7.96004 6.44048,3.11779 6.44048,3.11778 6.72194,1.63306 6.72194,1.63305 6.71987,0.1134 6.71986,0.11339 z m -23.9446,-38.51489 -4,-1.78543 -3.58184,-3.82904 -3.58184,-3.82905 -1.41816,-3.75347 -1.41816,-3.75346 0.0293,-4.9132 0.0293,-4.9132 2.44908,-5.33334 2.44908,-5.33333 2.57044,-2.28248 2.57044,-2.28249 4.90837,-2.05085 4.90838,-2.05085 3.04283,0.007 3.04282,0.007 4.99547,1.38732 4.99546,1.38732 4.55975,4.69502 4.55975,4.69503 1.53933,6.41663 1.53933,6.41664 -1.4324,5.31952 -1.4324,5.31953 -2.78818,3.54459 -2.78818,3.5446 -5.15418,2.62947 -5.15418,2.62946 -5.71979,-0.0522 -5.71978,-0.0522 z m 21.84977,-4.66988 4.19047,-2.98388 2.21052,-4.22821 2.21053,-4.22822 -0.0754,-6.25816 -0.0754,-6.25817 -2.72978,-4.4085 -2.72977,-4.4085 -3.75877,-2.211 -3.75876,-2.211 -4.86348,-0.91178 -4.86349,-0.91178 -5.92604,2.62137 -5.92604,2.62137 -2.71136,3.83474 -2.71135,3.83475 -0.96129,4.43756 -0.96128,4.43757 0.84855,4.52318 0.84856,4.52319 3.54751,4.21598 3.54751,4.21597 4.0661,1.84491 4.0661,1.8449 6.16299,-0.47621 6.16298,-0.4762 z m -152.800354,26.73929 -10.95058,-2.28857 -3.382754,-3.17793 -3.382753,-3.17793 v -2.13758 -2.13757 l 2.178793,-3.11066 2.178794,-3.11067 7.487873,0.65005 7.487874,0.65004 9.538561,1.74671 9.538566,1.74671 5.44849,-1.63241 5.4485,-1.63241 0.87595,-3.49006 0.87595,-3.49005 -1.29477,-2.05263 -1.29476,-2.05263 -14.79749,-6.07433 -14.797492,-6.07434 -4.183799,-3.09885 -4.183798,-3.09885 -2.581971,-4.23449 -2.58197,-4.23448 v -6.66667 -6.66666 l 2.548165,-4.1789 2.548164,-4.17889 4.446852,-3.27468 4.446852,-3.27467 4.666666,-1.87977 4.666667,-1.87976 17.333334,3.9e-4 17.33333,3.8e-4 5.12479,2.54409 5.12478,2.54408 1.39769,3.06758 1.39768,3.06758 -2.32356,3.5462 -2.32356,3.5462 -6.19891,-1.04484 -6.19891,-1.04484 -11.11971,-0.11341 -11.11971,-0.11341 -2.54695,3.14771 -2.54696,3.14771 v 1.24929 1.24929 l 3.41369,3.1637 3.4137,3.16371 10.25297,3.59927 10.25297,3.59927 7.068,3.30469 7.06799,3.30469 3.59867,5.44275 3.59868,5.44276 -0.0496,7.42591 -0.0496,7.42592 -2.58912,4.36362 -2.58912,4.36361 -4.89828,3.39451 -4.89828,3.39451 -6.34159,1.90854 -6.3416,1.90854 -12.12143,-0.0992 -12.121424,-0.0993 z m 46.564964,-4.5992 7.58094,-3.70901 2.62372,-4.26902 2.62372,-4.26903 0.9014,-4.86349 0.90139,-4.86349 -2.62136,-5.92604 -2.62137,-5.92604 -3.83475,-2.67336 -3.83474,-2.67336 -12,-4.28695 -12,-4.28695 -5.65342,-3.29861 -5.653425,-3.2986 -0.826893,-3.2946 -0.826893,-3.29461 2.216714,-3.38313 2.216717,-3.38313 3.3504,-1.27382 3.3504,-1.27382 h 8.56073 8.56073 l 6.14377,1.6432 6.14377,1.64321 1.82371,-2.49406 1.8237,-2.49406 -1.25353,-2.34224 -1.25352,-2.34223 -4.36148,-1.60299 -4.36148,-1.60298 -12,-0.70125 -12,-0.70125 -7.584429,1.57478 -7.584429,1.57478 -4.383843,2.95427 -4.383842,2.95427 -3.031729,4.49879 -3.031729,4.49878 v 5.20237 5.20237 l 1.873315,3.60045 1.873314,3.60045 3.149608,2.94081 3.149609,2.9408 15.310415,6.24556 15.31041,6.24557 2.33333,2.02028 2.33333,2.02028 v 4.3415 4.34149 l -4.1023,3.45186 -4.1023,3.45185 -6.8977,-0.0468 -6.897697,-0.0468 -8.666667,-1.90633 -8.666667,-1.90632 -4.170074,-0.0468 -4.170074,-0.0468 -1.60675,1.93602 -1.606751,1.93602 0.821163,2.58725 0.821163,2.58726 3.622328,1.49982 3.622328,1.49983 9.333334,1.92209 9.333334,1.92208 13.35005,-0.30048 13.35006,-0.30048 z m 179.23411,-0.42888 -3.51515,-3.51515 V 559.09093 523.8788 l 3.40585,-3.40585 3.40586,-3.40586 4.92748,0.64699 4.92747,0.64699 6.33137,2.47492 6.33136,2.47492 8.3353,-2.98905 8.33531,-2.98906 h 7.33333 7.33333 l 8.24671,2.95728 8.24671,2.95729 9.18122,-2.95701 9.18122,-2.95701 h 7.03724 7.03723 l 4.69225,2.22662 4.69225,2.22662 2.50427,4.10671 2.50427,4.10672 0.005,31.76923 0.005,31.76923 -3.89744,3.89744 -3.89743,3.89743 h -3.95485 -3.95486 l -3.14771,-2.54566 -3.14771,-2.54566 -0.80214,-29.78767 -0.80214,-29.78768 -1.01159,-2.34484 -1.0116,-2.34484 -3.18627,-0.7997 -3.18626,-0.79971 -3.53639,0.88758 -3.53639,0.88758 -3.52823,3.77698 -3.52822,3.77697 -1.75241,5.14666 -1.75242,5.14666 -0.67042,22.34448 -0.67041,22.34449 -3.94819,3.32218 -3.94819,3.32218 h -3.95831 -3.9583 l -3.27273,-3.27273 -3.27273,-3.27272 -0.007,-26.39394 -0.007,-26.39394 -1.3857,-4.98961 -1.3857,-4.98961 -3.33114,-0.83606 -3.33113,-0.83606 -4.9212,1.87302 -4.92119,1.87301 -2.88293,4.27799 -2.88294,4.27799 -1.4716,8.45055 -1.4716,8.45054 v 17.37564 17.37563 l -3.51515,3.51515 -3.51515,3.51515 h -4.30303 -4.30303 z m 13.81818,-1.81818 2.66667,-2.66667 0.0278,-18.33333 0.0278,-18.33334 1.71295,-8.17168 1.71295,-8.17168 2.33171,-3.55864 2.33171,-3.55864 4.26089,-2.59803 4.26088,-2.59803 4.42099,-0.005 4.42099,-0.005 2.52067,1.34902 2.52067,1.34902 1.38424,4.98431 1.38424,4.98431 0.007,26.33334 0.007,26.33333 2.66667,2.66667 2.66666,2.66666 h 3.10092 3.10091 l 2.7636,-3 2.7636,-3 0.52454,-22 0.52454,-22 3.52115,-7.63166 3.52116,-7.63165 4.42313,-2.6967 4.42312,-2.69669 4.94806,-0.005 4.94806,-0.005 2.53995,2.72631 2.53995,2.72632 0.83374,6.94035 0.83373,6.94035 0.0116,23.59106 0.0116,23.59106 2.96334,2.07561 2.96334,2.0756 h 2.61739 2.61739 l 3.08594,-2.89908 3.08593,-2.89909 v -30.50046 -30.50046 l -2.02257,-3.91122 -2.02257,-3.91122 -3.91121,-2.02257 -3.91122,-2.02256 h -6.76619 -6.76619 l -7.58715,2.66666 -7.58714,2.66667 h -3.66352 -3.66352 l -6.76539,-2.66667 -6.76538,-2.66666 h -6.56795 -6.56795 l -6.76538,2.66666 -6.76539,2.66667 -4.28397,-0.0452 -4.28398,-0.0452 -5.33333,-2.57619 -5.33333,-2.57618 -3.22835,-0.0452 -3.22835,-0.0452 -2.43832,2.20665 -2.43832,2.20665 v 34.46001 34.46002 l 2.66667,2.66667 2.66667,2.66666 h 3.33333 3.33333 z m 145.01636,3.90235 -2.31699,-1.34989 -1.68302,-2.9429 -1.68301,-2.9429 -0.66667,-22.66666 -0.66667,-22.66667 -5.92851,-2.84455 -5.92852,-2.84456 -2.40481,-2.96982 -2.40482,-2.96983 v -5.03791 -5.03791 l 2.48709,-3.07143 2.48709,-3.07142 5.76506,-1.40962 5.76507,-1.40962 2.15556,-8.8847 2.15556,-8.8847 1.85607,-2.44863 1.85606,-2.44864 4.06955,-4.45239 4.06955,-4.45239 6.05362,-3.09499 6.05361,-3.09499 7.85793,-1.45262 7.85794,-1.45262 h 8.5494 8.54939 l 3.75878,2.22037 3.75877,2.22036 1.44695,3.17571 1.44695,3.17571 v 1.87452 1.87453 l -1.42822,3.1346 -1.42822,3.13459 -2.90511,1.90608 -2.90512,1.90608 -13.15116,0.72992 -13.15117,0.72993 -2.5155,3.10652 -2.5155,3.10651 v 4.36345 4.36344 l 3,0.80397 3,0.80397 8.76758,0.0182 8.76758,0.0182 2.87857,3.0641 2.87858,3.0641 0.81691,4.08457 0.81691,4.08457 -2.14353,4.14514 -2.14354,4.14514 -2.56521,1.37286 -2.56521,1.37286 h -8.60661 -8.60661 l -2.7676,2.33333 -2.76759,2.33333 -0.38012,23.11845 -0.38011,23.11845 -3.74102,3.21489 -3.74102,3.21488 -6.25898,-0.0405 -6.25898,-0.0406 z m 16.5026,-3.78167 3.14771,-2.54599 0.66667,-23.57582 0.66666,-23.57581 3.14772,-2.54487 3.14771,-2.54486 h 8.4099 8.40991 l 2.15836,-0.82824 2.15837,-0.82824 2.01938,-3.90507 2.01939,-3.90506 -0.89308,-2.93336 -0.89307,-2.93336 -2.04894,-2.33334 -2.04894,-2.33333 h -9.03989 -9.03988 l -3.42014,-1.30033 -3.42013,-1.30034 v -4.76588 -4.76588 l 1.90001,-3.6742 1.9,-3.67421 3.49607,-1.59291 3.49606,-1.59292 h 9.87453 9.87452 l 3.24905,-1.48036 3.24904,-1.48036 1.55148,-3.40513 1.55148,-3.40514 -1.51883,-3.66679 -1.51884,-3.66679 -3.96046,-1.64047 -3.96046,-1.64048 -10.92516,0.80043 -10.92516,0.80044 -6.87046,2.07218 -6.87046,2.07217 -6.70012,6.02399 -6.70013,6.02399 -1.91671,5.6295 -1.9167,5.62949 -1.84604,6 -1.84604,6 -5.82651,1.40494 -5.82651,1.40495 -1.84016,2.51656 -1.84016,2.51656 v 3.16615 3.16615 l 1.42712,2.6666 1.42712,2.66659 5.59177,2.39691 5.59176,2.39691 1.5562,1.8751 1.55619,1.8751 0.42492,23.0944 0.42492,23.0944 3.14772,2.54601 3.14771,2.546 h 5.03791 5.03791 z m -160.18563,-152.51251 -16.66666,-7.00772 -12.4196,-7.11646 -12.41959,-7.11646 -10.91374,-8.07621 -10.91374,-8.07621 -10.66667,-10.89623 -10.66667,-10.89624 -7.59865,-10.59963 -7.59866,-10.59963 -5.94027,-11.27836 -5.94028,-11.27836 -4.94183,-13.33334 -4.94183,-13.33333 -3.14135,-14 -3.14136,-14 -2.34604,-16.66667 -2.34605,-16.66667 -0.0318,-54.88903 -0.0318,-54.88903 0.81161,-0.81147 0.81161,-0.81146 18.11619,-1.29467 18.11619,-1.29468 13.27907,-2.57414 13.27907,-2.57415 14.02178,-4.69198 14.02178,-4.69198 8.43802,-4.23412 8.43802,-4.23412 10.89059,-7.07003 10.89059,-7.07002 10.12546,-8.830732 10.12546,-8.830729 10.33268,8.782406 10.33268,8.782405 9.9846,6.70155 9.98461,6.70154 10.66667,5.17784 10.66666,5.17784 12,3.98773 12,3.98773 13.47339,2.73251 13.47339,2.73251 18.42954,1.31706 18.42954,1.31707 1.22868,1.22869 1.22869,1.22869 -0.63571,57.13505 -0.63572,57.13506 -2.21598,15.33333 -2.21598,15.33334 -3.41696,13.94738 -3.41696,13.94738 -3.89304,10.55849 -3.89303,10.55849 -6.93112,13.49413 -6.93112,13.49413 -9.70495,12.88399 -9.70495,12.884 -11.00052,10.24404 -11.00052,10.24405 -13.87263,9.29536 -13.87264,9.29535 -11.4607,5.73174 -11.4607,5.73174 -12.16531,4.84487 -12.16531,4.84486 -1.83469,-0.0254 -1.83469,-0.0254 z m 30.3869,-0.0957 11.6197,-4.48753 12.66337,-6.35651 12.66337,-6.3565 10.66667,-7.03176 10.66666,-7.03175 10.22604,-8.73874 10.22604,-8.73873 8.31129,-9.65673 8.31129,-9.65673 6.57679,-10.06208 6.57679,-10.06208 5.31338,-11.11784 5.31338,-11.11784 4.42958,-13.54882 4.42957,-13.54883 2.77771,-14 2.77771,-14 1.50939,-10.66667 1.50939,-10.66667 0.65332,-56.2132 0.65331,-56.2132 -8.46415,-0.73929 -8.46416,-0.73929 -10.66667,-0.77877 -10.66666,-0.77877 -13.33334,-2.68206 -13.33333,-2.68205 -11.59469,-3.87049 -11.59468,-3.87048 -12.40532,-6.22843 -12.40531,-6.22842 -7.79377,-5.29044 -7.79376,-5.29043 -10.54955,-8.586874 -10.54954,-8.586874 -9.65669,8.166603 -9.65669,8.166605 -10,6.64882 -10,6.64882 -12,5.7835 -12,5.7835 -13.33334,4.06969 -13.33333,4.06969 -11.40853,2.08657 -11.40852,2.08657 -17.05463,1.20861 -17.05463,1.20862 -0.87018,0.86999 -0.87018,0.86998 v 51.55575 51.55575 l 1.74155,14 1.74156,14 3.21442,16.07782 3.21442,16.07782 4.80682,13.80964 4.80682,13.80964 5.40707,10.77921 5.40706,10.77921 8.16347,11.96642 8.16348,11.96642 12.0588,12.03358 12.05879,12.03358 12.60787,8.93951 12.60787,8.9395 12.69882,6.65717 12.69881,6.65718 13.30119,5.3799 13.30118,5.3799 0.3836,0.0234 0.3836,0.0234 z"
       id="path1" />
  </g>
</svg>
